<svg width="23" height="30" viewBox="0 0 23 30" fill="none" xmlns="http://www.w3.org/2000/svg">
<path d="M20.5707 2.28018H14.3959V1.66447C14.3959 0.746759 13.6583 0 12.7518 0H9.48054C8.57378 0 7.83617 0.74676 7.83617 1.66457V2.28028H1.66142C0.745331 2.28028 0 3.01932 0 3.92761V5.01608C0 5.69874 0.420951 6.2856 1.01885 6.53522C1.20828 10.3088 2.30456 28.5535 2.3539 29.3733C2.37504 29.7253 2.66666 30 3.01932 30H19.2129C19.5656 30 19.8573 29.7253 19.8783 29.3733C19.9276 28.5536 21.0238 10.3088 21.2134 6.53522C21.8113 6.2856 22.2322 5.69874 22.2322 5.01608V3.92751C22.2322 3.01923 21.4869 2.28018 20.5707 2.28018V2.28018ZM9.1695 1.66457C9.1695 1.4819 9.30902 1.33333 9.48054 1.33333H12.7518C12.9232 1.33333 13.0626 1.4819 13.0626 1.66457V2.28028H9.16959V1.66457H9.1695ZM1.33314 3.92751C1.33314 3.75437 1.48038 3.61351 1.66123 3.61351H20.5706C20.7515 3.61351 20.8987 3.75427 20.8987 3.92751V5.01598C20.8987 5.18922 20.7515 5.33017 20.5706 5.33017H1.66133C1.48047 5.33017 1.33323 5.18932 1.33323 5.01598V3.92751H1.33314ZM18.5848 28.6666H3.64694C3.45123 25.405 2.55371 10.412 2.36028 6.6635H19.8714C19.6779 10.412 18.7805 25.405 18.5848 28.6666V28.6666Z" fill="white"/>
<path d="M11.1161 9.05949C10.7479 9.05949 10.4494 9.35797 10.4494 9.72616V26.4984C10.4494 26.8666 10.7479 27.1651 11.1161 27.1651C11.4843 27.1651 11.7827 26.8666 11.7827 26.4984V9.72616C11.7827 9.35797 11.4843 9.05949 11.1161 9.05949V9.05949Z" fill="white"/>
<path d="M6.61131 9.71807C6.59207 9.35045 6.27731 9.06693 5.91084 9.08712C5.54322 9.10626 5.26065 9.41988 5.27989 9.78759L6.15436 26.5332C6.17293 26.889 6.46722 27.1651 6.8195 27.1651C6.83122 27.1651 6.84303 27.1648 6.85484 27.1641C7.22245 27.145 7.50502 26.8313 7.48579 26.4636L6.61131 9.71807V9.71807Z" fill="white"/>
<path d="M16.3213 9.08711C15.9499 9.06588 15.64 9.35035 15.6208 9.71806L14.7461 26.4636C14.7269 26.8313 15.0095 27.145 15.3771 27.1641C15.389 27.1648 15.4007 27.1651 15.4124 27.1651C15.7646 27.1651 16.059 26.8891 16.0776 26.5332L16.9522 9.78759C16.9715 9.41988 16.689 9.10626 16.3213 9.08711V9.08711Z" fill="white"/>
</svg>
